# xmcd
#
# Track frame offsets:
#	150
#	10818
#	20355
#	34023
#	45930
#	55683
#	67733
#	78495
#	87658
#	99583
#	111438
#	122248
#	137825
#	154568
#
# Disc length: 2186 seconds
#
# Revision: 3
# Processed by: cddbd v1.5.2PL0 Copyright (c) Steve Scherf et al.
# Submitted via: EasyCDDAExtractor 12.0.1.1
#
DISCID=aa08880e
DTITLE=Giants of Latin - Club de Latinos
DYEAR=1900
DGENRE=Dance
TTITLE0=CC 30 - Bonito Y Sabroso
TTITLE1=SB 52 - El Caballito
TTITLE2=RB 24 - Johnny Guitar
TTITLE3=CC 32 - Suelta La Cintura
TTITLE4=SB 52 - Fiesta Sudamericana
TTITLE5=RB 26 - You Belong To My Heart
TTITLE6=CC 32 - Voulez-Vous?
TTITLE7=SB 52 - Jingo
TTITLE8=RB 26 - Luna Dorado
TTITLE9=CC 32 - Baila Baila
TTITLE10=SB 52 - Viva Espana
TTITLE11=RB 26 - From Here To Eternity
TTITLE12=PD 61 - Y Viva Espana
TTITLE13=PD 60 - Espana Cani
EXTD=
EXTT0=
EXTT1=Samba
EXTT2=
EXTT3=
EXTT4=
EXTT5=
EXTT6=
EXTT7=
EXTT8=
EXTT9=
EXTT10=
EXTT11=
EXTT12=
EXTT13=
PLAYORDER=
